<?xml version="1.0" encoding="UTF-8"?>
<svg xmlns="http://www.w3.org/2000/svg" xmlns:xlink="http://www.w3.org/1999/xlink" width="64pt" height="64pt" viewBox="0 0 64 64" version="1.1">
<g id="surface4227769">
<path style=" stroke:none;fill-rule:nonzero;fill:rgb(100%,100%,100%);fill-opacity:1;" d="M 29.929688 4.390625 C 29.765625 4.394531 29.605469 4.4375 29.464844 4.519531 L 7.503906 17.035156 C 7.191406 17.214844 7 17.542969 7 17.902344 L 7 29.890625 C 6.984375 29.988281 6.984375 30.089844 7 30.191406 L 7 42.351562 C 7 42.707031 7.1875 43.035156 7.496094 43.214844 C 7.804688 43.394531 8.1875 43.394531 8.496094 43.21875 L 19.472656 36.960938 C 19.785156 36.78125 19.976562 36.449219 19.976562 36.09375 L 19.976562 24.546875 L 30.453125 18.578125 C 30.765625 18.398438 30.957031 18.066406 30.957031 17.707031 L 30.957031 5.390625 C 30.957031 5.117188 30.847656 4.859375 30.652344 4.671875 C 30.460938 4.484375 30.199219 4.378906 29.929688 4.390625 Z M 34.0625 4.390625 C 33.792969 4.382812 33.535156 4.488281 33.34375 4.675781 C 33.152344 4.863281 33.042969 5.121094 33.042969 5.390625 L 33.042969 17.707031 C 33.042969 18.066406 33.234375 18.398438 33.546875 18.578125 L 44.023438 24.546875 L 44.023438 36.09375 C 44.023438 36.449219 44.214844 36.78125 44.527344 36.960938 L 55.503906 43.21875 C 55.8125 43.394531 56.195312 43.394531 56.503906 43.214844 C 56.8125 43.035156 57 42.707031 57 42.351562 L 57 30.183594 C 57.015625 30.085938 57.015625 29.984375 57 29.886719 L 57 17.902344 C 57 17.542969 56.808594 17.214844 56.496094 17.035156 L 34.535156 4.519531 C 34.390625 4.4375 34.226562 4.390625 34.0625 4.390625 Z M 28.957031 7.109375 L 28.957031 16.140625 L 21.011719 11.636719 Z M 35.042969 7.109375 L 42.972656 11.628906 L 35.042969 16.140625 Z M 45.988281 13.347656 L 53.84375 17.824219 L 49.996094 19.960938 L 46.015625 22.171875 Z M 43.988281 13.351562 L 44.015625 22.238281 L 36.203125 17.78125 Z M 18 13.355469 L 18 22.183594 L 10.152344 17.828125 Z M 20 13.363281 L 27.789062 17.777344 L 20 22.230469 Z M 9 19.472656 L 16.972656 23.902344 L 9 28.328125 Z M 55 19.472656 L 55 28.328125 L 50.96875 26.089844 L 47.027344 23.902344 L 50.96875 21.710938 Z M 17.976562 25.628906 L 17.976562 34.425781 L 14.003906 32.21875 C 14.003906 32.21875 14.003906 32.21875 14.003906 32.214844 L 10.0625 30.027344 Z M 46.023438 25.628906 L 49.996094 27.835938 L 53.9375 30.027344 L 46.023438 34.425781 Z M 9 31.730469 L 13.03125 33.96875 L 16.90625 36.117188 L 9 40.625 Z M 55 31.730469 L 55 40.628906 L 47.089844 36.121094 Z M 27.644531 35.765625 C 27.257812 35.71875 26.859375 35.902344 26.65625 36.257812 L 25.65625 37.988281 C 25.378906 38.46875 25.542969 39.082031 26.023438 39.355469 C 26.179688 39.449219 26.347656 39.488281 26.519531 39.488281 C 26.863281 39.488281 27.199219 39.3125 27.386719 38.988281 L 28.386719 37.257812 C 28.664062 36.78125 28.5 36.167969 28.023438 35.890625 C 27.902344 35.824219 27.773438 35.78125 27.644531 35.765625 Z M 36.351562 35.765625 C 36.226562 35.78125 36.097656 35.824219 35.976562 35.894531 C 35.5 36.167969 35.335938 36.78125 35.613281 37.261719 L 36.613281 38.992188 C 36.796875 39.308594 37.132812 39.492188 37.480469 39.492188 C 37.652344 39.492188 37.820312 39.449219 37.976562 39.359375 C 38.457031 39.082031 38.621094 38.46875 38.347656 37.992188 L 37.347656 36.261719 C 37.136719 35.902344 36.738281 35.71875 36.355469 35.765625 Z M 32 38.347656 C 31.445312 38.347656 31 38.792969 31 39.347656 L 31 41.65625 C 31 42.207031 31.445312 42.65625 32 42.65625 C 32.554688 42.65625 33 42.207031 33 41.65625 L 33 39.347656 C 33 38.792969 32.554688 38.347656 32 38.347656 Z M 21.410156 39.230469 C 21.226562 39.222656 21.046875 39.269531 20.886719 39.363281 L 20.570312 39.546875 C 20.546875 39.554688 20.523438 39.566406 20.5 39.582031 L 15.390625 42.527344 C 15.386719 42.527344 15.386719 42.527344 15.386719 42.527344 L 10.273438 45.472656 C 9.972656 45.648438 9.785156 45.960938 9.773438 46.308594 C 9.773438 46.335938 9.773438 46.363281 9.777344 46.394531 C 9.789062 46.738281 9.976562 47.050781 10.273438 47.222656 L 31.5 59.476562 C 31.808594 59.65625 32.1875 59.65625 32.5 59.476562 C 32.511719 59.46875 32.527344 59.457031 32.542969 59.449219 L 53.726562 47.222656 C 54.035156 47.042969 54.226562 46.714844 54.226562 46.355469 C 54.226562 46 54.035156 45.667969 53.726562 45.492188 L 43.113281 39.363281 C 42.804688 39.183594 42.421875 39.183594 42.113281 39.363281 L 32 45.203125 L 21.886719 39.363281 C 21.742188 39.277344 21.578125 39.230469 21.410156 39.230469 Z M 22 41.734375 L 29.996094 46.355469 L 26.191406 48.550781 L 22 50.972656 Z M 42 41.734375 L 42 50.566406 L 34.054688 46.320312 Z M 20 42.183594 L 20 50.503906 L 16.386719 48.417969 L 12.789062 46.347656 Z M 44 42.183594 L 51.226562 46.355469 L 44 50.527344 Z M 32.996094 48.023438 L 40.964844 52.277344 L 32.996094 56.878906 Z M 30.996094 48.089844 L 30.996094 56.875 L 23.386719 52.484375 L 27.195312 50.285156 Z M 30.996094 48.089844 "/>
</g>
</svg>
